<svg width="54" height="42" viewBox="0 0 54 42" fill="none" xmlns="http://www.w3.org/2000/svg">
<g clip-path="url(#clip0_7010_1559)">
<path fill-rule="evenodd" clip-rule="evenodd" d="M51.8015 29.9495C51.4902 31.1217 49.5739 36.3983 48.9031 38.4963C48.2764 40.4558 48.5255 34.02 47.8988 35.9796C47.7994 36.2904 46.453 36.6103 46.1957 36.8092C45.913 37.0279 45.4603 37.5358 45.1037 37.5344C42.0971 37.5192 44.4422 36.8248 41.4352 36.8092C39.914 36.8011 39.5337 37.3932 38.0122 37.3854C37.2516 37.3818 36.3006 37.5379 35.54 37.5344C34.8749 37.5312 29.882 36.6397 29.2514 36.4712C29.5525 34.8007 31.8702 39.1653 32.3464 37.5344C32.8374 35.8551 29.7748 38.2061 30.2655 36.5268C31.2566 33.1334 32.2477 29.74 33.2392 26.3466C38.8221 26.3466 44.4051 26.3456 49.9878 26.3452C50.5807 26.3452 51.3201 26.4525 51.7636 26.8481C52.3956 27.4127 52.1985 28.3336 52.001 29.1599C51.938 29.4236 51.871 29.6873 51.8015 29.9495Z" fill="#C0131B"/>
<path fill-rule="evenodd" clip-rule="evenodd" d="M3.54104 29.9492C3.85261 31.1221 5.76824 36.3983 6.43967 38.496C7.06632 40.4555 6.81715 34.0196 7.44383 35.9792C7.54322 36.2904 8.8896 36.6099 9.14689 36.8095C9.42922 37.0283 9.88177 37.5361 10.2385 37.534C13.245 37.5188 10.9004 36.8248 13.9069 36.8095C15.4284 36.8018 15.8087 37.3931 17.3303 37.385C18.0909 37.3818 19.0418 37.5376 19.8025 37.534C20.4676 37.5309 25.4605 36.6393 26.091 36.4708C25.7901 34.8003 23.4719 39.1649 22.9961 37.534C22.5055 35.8554 25.5677 38.2058 25.077 36.5264C24.0859 33.1337 23.0948 29.7403 22.1037 26.347C16.5203 26.3463 10.9374 26.3452 5.35446 26.3452C4.76161 26.3452 4.02214 26.4524 3.5791 26.8478C2.94679 27.4119 3.14417 28.3332 3.34155 29.1592C3.40464 29.424 3.4716 29.6869 3.54104 29.9492Z" fill="#C0131B"/>
<path fill-rule="evenodd" clip-rule="evenodd" d="M46.3307 23.0457C46.3307 33.5135 37.8798 41.9998 27.4551 41.9998C17.0308 41.9998 8.57982 33.5135 8.57982 23.0457C8.57982 12.5778 17.0308 4.09224 27.4551 4.09224C37.8798 4.09224 46.3307 12.5778 46.3307 23.0457Z" fill="#FCD842"/>
<path fill-rule="evenodd" clip-rule="evenodd" d="M41.1386 10.0143C37.7871 6.95296 33.3377 5.08852 28.4561 5.08852C18.0272 5.08852 9.57169 13.5791 9.57169 24.0515C9.57169 28.9529 11.4285 33.4205 14.4765 36.7866C10.8444 33.3504 8.57884 28.4603 8.57884 23.0429C8.57884 12.5817 17.034 4.09224 27.4513 4.09224C32.8467 4.09187 37.717 6.36686 41.1386 10.0143Z" fill="#FDE869"/>
<path fill-rule="evenodd" clip-rule="evenodd" d="M41.7173 23.0458C41.7173 30.9552 35.3319 37.3675 27.4548 37.3675C19.578 37.3675 13.1925 30.9552 13.1925 23.0458C13.1925 15.1365 19.578 8.72451 27.4548 8.72451C35.3319 8.72484 41.7173 15.1365 41.7173 23.0458Z" fill="#F7B500"/>
<path fill-rule="evenodd" clip-rule="evenodd" d="M38.0095 13.4146C35.475 11.1513 32.147 9.75618 28.4794 9.75618C20.5969 9.75618 14.2203 16.1589 14.2203 24.0743C14.2203 27.7572 15.61 31.0993 17.864 33.6439C14.9911 31.0288 13.1925 27.2525 13.1925 23.043C13.1925 15.1389 19.5808 8.72451 27.4519 8.72451C31.6448 8.72415 35.4052 10.5295 38.0095 13.4146Z" fill="#E28900"/>
<path fill-rule="evenodd" clip-rule="evenodd" d="M28.9383 16.6637C29.5001 16.8014 30.008 16.9986 30.463 17.2552C30.9184 17.5125 31.3078 17.8002 31.6321 18.1194C31.9564 18.4383 32.2122 18.7738 32.3994 19.1238C32.5869 19.4746 32.6856 19.8129 32.6976 20.1389C32.6976 20.2514 32.6581 20.3481 32.576 20.4294C32.4953 20.5112 32.4054 20.5519 32.3049 20.5519H29.8546C29.6812 20.5519 29.5395 20.5271 29.4341 20.4769C29.3274 20.4273 29.2195 20.3513 29.1067 20.2514C29.069 20.2139 29.0098 20.1513 28.9291 20.0635C28.8484 19.9764 28.7331 19.8851 28.5837 19.791C28.4342 19.6969 28.2467 19.6161 28.0219 19.5464C27.7977 19.4781 27.5242 19.4434 27.1999 19.4434C26.962 19.4434 26.734 19.4594 26.5162 19.4905C26.2983 19.522 26.1052 19.5719 25.9364 19.6406C25.7689 19.7099 25.6304 19.8069 25.5254 19.9319C25.4186 20.0571 25.3654 20.2139 25.3654 20.4015C25.3654 20.5891 25.4249 20.7459 25.5433 20.8715C25.6618 20.9968 25.8616 21.1129 26.1415 21.219C26.4227 21.3252 26.7932 21.4282 27.2542 21.5284C27.7156 21.6282 28.2897 21.7475 28.9756 21.8855C29.6608 22.0239 30.2607 22.1987 30.7717 22.4114C31.2817 22.6241 31.7093 22.8903 32.0522 23.2098C32.3959 23.5287 32.6521 23.9046 32.8192 24.3364C32.9883 24.7685 33.0719 25.2785 33.0719 25.8671C33.0719 26.393 32.9711 26.875 32.7723 27.3136C32.5732 27.752 32.293 28.1399 31.9306 28.4779C31.5697 28.8166 31.133 29.098 30.6212 29.3231C30.1098 29.5486 29.5498 29.711 28.9379 29.8115V31.1447C28.9379 31.2824 28.8889 31.4013 28.7888 31.5015C28.6876 31.6016 28.571 31.6519 28.4339 31.6519H25.9832C25.8461 31.6519 25.7277 31.6016 25.6273 31.5015C25.5282 31.4013 25.4782 31.2824 25.4782 31.1447V29.7549C24.8793 29.6172 24.3393 29.42 23.8597 29.1635C23.3803 28.9076 22.9683 28.6163 22.6253 28.2896C22.2831 27.9654 22.018 27.6115 21.8305 27.2293C21.643 26.8471 21.5429 26.4624 21.531 26.0745C21.531 25.9616 21.5718 25.8642 21.6529 25.7835C21.7333 25.7018 21.8246 25.6615 21.9236 25.6615H24.3742C24.5491 25.6615 24.6862 25.683 24.7852 25.7266C24.886 25.7705 24.9847 25.8363 25.0852 25.924C25.1352 25.9747 25.2099 26.0557 25.309 26.1679C25.4094 26.2808 25.5433 26.3965 25.7122 26.5155C25.8799 26.6351 26.0914 26.7377 26.3469 26.8262C26.6025 26.9133 26.9176 26.9572 27.2923 26.9572C27.9531 26.9572 28.5051 26.886 28.9485 26.7413C29.3898 26.5976 29.6122 26.3378 29.6122 25.9619C29.6122 25.774 29.53 25.6176 29.3686 25.4923C29.2058 25.3673 28.964 25.2509 28.6397 25.1447C28.3155 25.0385 27.8999 24.9352 27.3959 24.8347C26.8904 24.7349 26.2951 24.6096 25.6089 24.4592C24.3238 24.1835 23.3863 23.7234 22.7942 23.0789C22.2024 22.4334 21.9052 21.5733 21.9052 20.496C21.9052 20.0579 21.9863 19.6349 22.1492 19.2286C22.3106 18.8209 22.545 18.4493 22.8509 18.1102C23.1551 17.7726 23.5298 17.4785 23.9728 17.2275C24.4155 16.9777 24.916 16.7834 25.4782 16.6457V15.2559C25.4782 15.1185 25.5282 14.9993 25.6273 14.8988C25.7277 14.7983 25.8461 14.7483 25.9832 14.7483H28.4339C28.571 14.7483 28.688 14.7983 28.7888 14.8988C28.8889 14.9989 28.9379 15.1182 28.9379 15.2559L28.9383 16.6637Z" fill="#E28900"/>
<path fill-rule="evenodd" clip-rule="evenodd" d="M28.4784 16.202C29.0403 16.3397 29.5489 16.5368 30.0039 16.7941C30.4586 17.0507 30.8484 17.3385 31.1726 17.6581C31.4969 17.977 31.7524 18.3125 31.94 18.6625C32.1267 19.0132 32.2258 19.3516 32.2381 19.6775C32.2381 19.7901 32.1987 19.8871 32.1161 19.9681C32.0358 20.0499 31.9459 20.0902 31.8455 20.0902H29.3945C29.2211 20.0902 29.0797 20.0658 28.9747 20.0155C28.8683 19.966 28.76 19.8899 28.6472 19.7901C28.6092 19.7525 28.5496 19.6899 28.4693 19.6021C28.3885 19.5144 28.2726 19.4238 28.1235 19.3303C27.9748 19.2358 27.7872 19.1551 27.562 19.0854C27.3382 19.0178 27.0644 18.9824 26.7401 18.9824C26.5025 18.9824 26.2742 18.9984 26.0567 19.0299C25.8389 19.061 25.6457 19.1105 25.4769 19.1792C25.3091 19.2486 25.1709 19.3463 25.0656 19.4705C24.9591 19.5958 24.9059 19.7525 24.9059 19.9405C24.9059 20.1281 24.9655 20.2841 25.0839 20.4094C25.2023 20.5351 25.4022 20.6511 25.682 20.7573C25.964 20.8635 26.3337 20.9665 26.7947 21.0667C27.2561 21.1668 27.8299 21.2857 28.5165 21.4238C29.2017 21.5621 29.8012 21.7377 30.3126 21.9497C30.8226 22.1624 31.2505 22.4285 31.5924 22.7481C31.9371 23.067 32.1926 23.4425 32.3601 23.8746C32.5296 24.3068 32.6128 24.8171 32.6128 25.4054C32.6128 25.9313 32.5127 26.413 32.3128 26.8518C32.1134 27.2896 31.8335 27.6782 31.4712 28.0162C31.1102 28.3542 30.6735 28.6363 30.1618 28.8614C29.65 29.0868 29.0903 29.2493 28.4781 29.3498V30.683C28.4781 30.8207 28.4298 30.9403 28.329 31.0401C28.2289 31.1403 28.1115 31.1912 27.9747 31.1912H25.5238C25.387 31.1912 25.2682 31.1403 25.1674 31.0401C25.0687 30.9403 25.0183 30.821 25.0183 30.683V29.2931C24.4205 29.1555 23.8799 28.9584 23.4006 28.7018C22.9208 28.4459 22.5085 28.1546 22.1662 27.8286C21.8236 27.5038 21.5589 27.1498 21.3714 26.7676C21.1843 26.3853 21.0842 26.0006 21.0719 25.6127C21.0719 25.4998 21.1124 25.4025 21.1935 25.3211C21.2741 25.2397 21.3655 25.1994 21.4641 25.1994H23.9151C24.0903 25.1994 24.2267 25.2213 24.3261 25.2656C24.4262 25.3087 24.5252 25.3742 24.6257 25.4623C24.6757 25.5126 24.7504 25.594 24.8491 25.7062C24.9499 25.8187 25.0835 25.9355 25.2527 26.0537C25.4201 26.1734 25.6316 26.276 25.8875 26.3645C26.143 26.4515 26.4585 26.4961 26.8328 26.4961C27.4936 26.4961 28.0456 26.4236 28.489 26.2795C28.9303 26.1358 29.1527 25.8761 29.1527 25.5002C29.1527 25.3123 29.0702 25.1566 28.9088 25.0306C28.7459 24.9052 28.5038 24.7892 28.1799 24.683C27.8553 24.5761 27.4401 24.4735 26.9364 24.3737C26.4306 24.2735 25.8357 24.1482 25.1494 23.9978C23.8644 23.7228 22.9272 23.262 22.3347 22.6175C21.7426 21.9723 21.4455 21.112 21.4455 20.0343C21.4455 19.5965 21.5265 19.1739 21.6893 18.7672C21.8504 18.3602 22.0851 17.9879 22.3911 17.6489C22.6953 17.3112 23.0699 17.0171 23.5126 16.7665C23.9557 16.5167 24.4562 16.3224 25.018 16.1843V14.7938C25.018 14.6565 25.0684 14.5372 25.1671 14.4367C25.2679 14.3369 25.3863 14.2863 25.5234 14.2863H27.9744C28.1112 14.2863 28.2285 14.3369 28.3286 14.4367C28.4294 14.5368 28.4777 14.6561 28.4777 14.7938V16.202H28.4784Z" fill="#FCD842"/>
<path fill-rule="evenodd" clip-rule="evenodd" d="M49.9912 26.3454C50.6672 26.338 51.8768 26.5372 52.0444 27.3658C52.1142 27.7122 51.7298 28.6179 50.7525 28.6179C50.6858 28.6179 4.44784 28.6126 4.44784 28.6126L1.50726 38.5609C1.50726 38.5609 1.22741 40.8026 3.07219 40.8026C12.8741 40.8026 44.5304 40.8034 44.5304 40.8046H46.5912C47.8738 40.8046 48.9982 39.95 49.3455 38.711C50.2335 35.542 51.7871 29.908 52.0141 29.1998C52.5342 27.5763 52.5136 26.3394 49.9912 26.3454Z" fill="#E4081C"/>
<path fill-rule="evenodd" clip-rule="evenodd" d="M3.24917 27.3243C3.24917 27.3243 2.78816 28.5747 6.5221 28.6122C4.86238 34.7364 3.14802 40.8017 3.14802 40.8017H2.04658C0.743187 40.8017 -0.199289 39.5504 0.15599 38.2908L3.24917 27.3243Z" fill="#E4081C"/>
<path fill-rule="evenodd" clip-rule="evenodd" d="M7.24972 36.164C8.11924 36.164 8.82027 35.9269 9.39337 35.2236L8.45621 34.3233C8.13301 34.7158 7.7756 34.8715 7.40516 34.8715C6.81865 34.8715 6.43447 34.4992 6.43447 33.9442C6.43447 33.0984 6.96036 32.5027 7.70865 32.5027C8.14003 32.5027 8.45019 32.7062 8.65215 33.0577L9.79802 32.158C9.45435 31.5486 8.71277 31.2102 7.80945 31.2102C6.0637 31.2102 4.83044 32.381 4.83044 34.0462C4.83008 35.3043 5.78703 36.164 7.24972 36.164ZM13.1065 36.0557L12.9518 35.23H11.1522L10.6802 36.0557H9.00216L12.0079 31.3178H13.5718L14.6909 36.0557H13.1065ZM11.806 34.0798H12.7294L12.5 32.8676L11.806 34.0798ZM16.8204 36.164C18.2902 36.164 19.2069 35.4534 19.2069 34.3976C19.2069 32.9359 16.9554 33.2675 16.9554 32.7462C16.9554 32.5838 17.1845 32.4277 17.6498 32.4277C18.108 32.4277 18.5662 32.5427 18.944 32.7799L19.5171 31.6154C19.0786 31.3514 18.4519 31.2095 17.7509 31.2095C16.2618 31.2095 15.3648 31.9134 15.3648 32.9897C15.3648 34.4581 17.6092 34.1672 17.6092 34.668C17.6092 34.8375 17.3935 34.9458 16.9826 34.9458C16.457 34.9458 15.9174 34.8106 15.3919 34.5059L14.7782 35.6834C15.2301 35.9612 15.978 36.164 16.8204 36.164ZM23.379 31.3178H24.9696L24.0261 36.0557H22.4354L22.7858 34.3095H21.3164L20.9661 36.0557H19.3751L20.3189 31.3178H21.9096L21.5726 32.9964H23.042L23.379 31.3178ZM31.1098 33.6193C31.6287 33.396 31.9522 32.9968 31.9522 32.4479C31.9522 31.7308 31.3791 31.3178 30.2604 31.3178H27.7597L26.8162 36.0557H29.5392C30.7454 36.0557 31.7432 35.5953 31.7432 34.5466C31.7432 34.1134 31.5145 33.7949 31.1098 33.6193ZM29.8762 32.4348C30.1392 32.4348 30.2942 32.5293 30.2942 32.7257C30.2942 32.9826 30.1325 33.1387 29.7687 33.1387H28.9598L29.1012 32.4348H29.8762ZM29.627 34.9387H28.6024L28.7508 34.1941H29.7751C29.9841 34.1941 30.1659 34.2957 30.1659 34.5055C30.1659 34.7968 29.9372 34.9387 29.627 34.9387ZM35.6189 36.0557L35.4637 35.23H33.6644L33.1925 36.0557H31.5141L34.5202 31.3178H36.0841L37.2031 36.0557H35.6189ZM34.3179 34.0798H35.2413L35.0122 32.8676L34.3179 34.0798ZM40.0739 36.164C40.944 36.164 41.6446 35.9269 42.2177 35.2236L41.2808 34.3233C40.9573 34.7158 40.6003 34.8715 40.2294 34.8715C39.6429 34.8715 39.2587 34.4992 39.2587 33.9442C39.2587 33.0984 39.7846 32.5027 40.5324 32.5027C40.9634 32.5027 41.2739 32.7062 41.4758 33.0577L42.6215 32.158C42.2779 31.5486 41.5364 31.2102 40.6334 31.2102C38.8875 31.2102 37.654 32.381 37.654 34.0462C37.6546 35.3043 38.6116 36.164 40.0739 36.164ZM48.1962 31.3178L45.8305 33.4771L47.3675 36.0557H45.5951L44.6375 34.5126L44.1929 34.9257L43.9704 36.0557H42.4067L43.3505 31.3178H44.9142L44.577 32.9964L46.37 31.3178H48.1962Z" fill="white"/>
<path fill-rule="evenodd" clip-rule="evenodd" d="M50.0823 25.4564H43.4734C43.0283 25.4564 42.7109 24.9259 42.8446 24.4045C42.9314 24.0676 43.1858 23.8383 43.4734 23.8383H50.0823C50.5282 23.8383 50.8452 24.3691 50.7111 24.8901C50.6251 25.2274 50.3703 25.4564 50.0823 25.4564Z" fill="#E4081C"/>
<path fill-rule="evenodd" clip-rule="evenodd" d="M53.6993 24.679C53.6993 25.132 53.3334 25.4991 52.8831 25.4991C52.432 25.4991 52.0665 25.132 52.0665 24.679C52.0665 24.2264 52.432 23.8594 52.8831 23.8594C53.3334 23.8597 53.6993 24.2267 53.6993 24.679Z" fill="#E4081C"/>
<path fill-rule="evenodd" clip-rule="evenodd" d="M47.7754 9.39679L47.8113 9.38936C46.5557 9.12072 45.5902 8.10816 45.3781 6.83653L45.2808 6.25681L45.1908 6.79655C44.9775 8.06923 44.0111 9.08143 42.7539 9.3497L42.7176 9.3575C43.974 9.62577 44.9388 10.6376 45.1516 11.9092L45.2489 12.4897L45.339 11.9496C45.5518 10.6773 46.5178 9.66507 47.7754 9.39679Z" fill="#F7B500"/>
<path fill-rule="evenodd" clip-rule="evenodd" d="M20.6464 2.1359L20.671 2.13059C19.817 1.94762 19.1604 1.25924 19.0159 0.394266L18.95 0L18.8883 0.367014C18.7434 1.23235 18.0865 1.92107 17.2314 2.10334L17.2067 2.10865C18.0611 2.29127 18.7173 2.98 18.8618 3.84427L18.9278 4.23925L18.9891 3.87187C19.1343 3.00619 19.7913 2.31782 20.6464 2.1359Z" fill="#F7B500"/>
</g>
<defs>
<clipPath id="clip0_7010_1559">
<rect width="53.4686" height="41.81" fill="white" transform="scale(1.00454)"/>
</clipPath>
</defs>
</svg>
