<svg width="58" height="42" viewBox="0 0 58 42" fill="none" xmlns="http://www.w3.org/2000/svg">
<g clip-path="url(#clip0_7010_1609)">
<path fill-rule="evenodd" clip-rule="evenodd" d="M19.623 35.5765C16.0148 34.5294 12.819 34.1977 9.82027 34.7255C11.0474 34.7449 12.1857 34.8933 13.2506 35.1117C14.7476 35.4189 16.0952 35.8645 17.3011 36.2632C17.3944 36.294 17.4869 36.3247 17.5784 36.3549C18.8757 36.7825 19.9771 37.1268 21.0116 37.2313L21.0546 39.267L20.9366 38.252C19.9183 38.149 18.8595 37.8358 17.7176 37.4642C17.5048 37.3948 17.289 37.3236 17.0701 37.2511C13.9906 36.2332 10.2842 35.0081 5.17886 36.3144C3.95994 36.6264 2.66128 37.0825 1.27236 37.7203C2.47886 36.7538 3.6856 35.9626 4.90625 35.3359C9.45173 33.0016 14.1906 32.9447 19.8326 34.582C25.418 36.2029 30.7403 36.8255 35.0763 35.4673C36.0705 35.1558 37.0128 34.7403 37.8946 34.2087C37.2233 34.9746 36.3911 35.72 35.4285 36.4166C30.4266 40.0364 21.9054 42.338 14.1528 39.3593C13.0504 38.9357 11.9636 38.4054 10.9045 37.7569C12.0735 38.0524 13.235 38.2383 14.3306 38.3492C15.5252 38.4703 16.6417 38.5022 17.6044 38.4904C19.6011 38.4656 20.9366 38.252 20.9366 38.252C21.0546 39.267 21.0547 39.267 21.0546 39.267L21.0524 39.2673L21.0485 39.2679L21.0352 39.2701C21.0242 39.2717 21.0083 39.2741 20.9879 39.2772C20.9469 39.283 20.8877 39.2914 20.8116 39.3015C20.659 39.3216 20.4381 39.3485 20.1582 39.3762C19.7649 39.4154 19.2546 39.4566 18.6532 39.4844C21.2281 39.8584 23.808 39.7324 26.2342 39.2475C28.5248 38.7897 30.6517 38.0177 32.4852 37.067C28.5534 37.5792 24.1226 36.8823 19.623 35.5765Z" fill="#F5B923"/>
<path d="M19.623 35.5765L19.8172 34.6554M19.623 35.5765C16.0148 34.5294 12.819 34.1977 9.82027 34.7255C11.0474 34.7449 12.1857 34.8933 13.2506 35.1117C14.7476 35.4189 16.0952 35.8645 17.3011 36.2632C17.3944 36.294 17.4869 36.3247 17.5784 36.3549C18.8757 36.7825 19.9771 37.1268 21.0116 37.2313L21.0546 39.267M19.623 35.5765C24.1226 36.8823 28.5534 37.5792 32.4852 37.067C30.6517 38.0177 28.5248 38.7897 26.2342 39.2475C23.808 39.7324 21.2281 39.8584 18.6532 39.4844C19.2546 39.4566 19.7649 39.4154 20.1582 39.3762C20.4381 39.3485 20.659 39.3216 20.8116 39.3015C20.8877 39.2914 20.9469 39.283 20.9879 39.2772C21.0083 39.2741 21.0242 39.2717 21.0352 39.2701L21.0485 39.2679L21.0524 39.2673L21.0546 39.267M21.0546 39.267L20.9366 38.252M21.0546 39.267C21.0547 39.267 21.0546 39.267 20.9366 38.252M20.9366 38.252C19.9183 38.149 18.8595 37.8358 17.7176 37.4642C17.5048 37.3948 17.289 37.3236 17.0701 37.2511C13.9906 36.2332 10.2842 35.0081 5.17886 36.3144C3.95994 36.6264 2.66128 37.0825 1.27236 37.7203C2.47886 36.7538 3.6856 35.9626 4.90625 35.3359C9.45173 33.0016 14.1906 32.9447 19.8326 34.582C25.418 36.2029 30.7403 36.8255 35.0763 35.4673C36.0705 35.1558 37.0128 34.7403 37.8946 34.2087C37.2233 34.9746 36.3911 35.72 35.4285 36.4166C30.4266 40.0364 21.9054 42.338 14.1528 39.3593C13.0504 38.9357 11.9636 38.4054 10.9045 37.7569C12.0735 38.0524 13.235 38.2383 14.3306 38.3492C15.5252 38.4703 16.6417 38.5022 17.6044 38.4904C19.6011 38.4656 20.9366 38.252 20.9366 38.252Z" stroke="#F5B923" stroke-width="1.26697"/>
<path fill-rule="evenodd" clip-rule="evenodd" d="M51.3088 12.7295C51.1028 12.1997 50.9873 11.5087 50.9227 11.0249C50.8893 10.7745 50.866 10.5508 50.8508 10.387L49.1982 7.77018L47.9477 5.80061L48.8112 5.25527C49.1186 5.06121 49.3417 4.88887 49.5303 4.61046C49.3951 4.66263 49.2638 4.71042 49.1377 4.75638C49.0976 4.77096 49.058 4.78537 49.0189 4.79966C48.256 5.07927 47.6459 5.33106 47.0577 6.00551L46.7735 6.33126L46.3733 6.29336C36.4625 5.35465 31.5559 12.0714 30.1555 13.9884C30.1061 14.0558 30.0612 14.1176 30.0204 14.1725C29.1393 15.3661 28.3687 16.6442 27.607 17.9595C27.4409 18.2462 27.2747 18.5358 27.1077 18.8268C26.5166 19.8567 25.9156 20.9039 25.2766 21.9032C23.6217 24.4914 21.6353 26.8862 18.545 28.3489L18.542 28.3502L18.5389 28.3517C16.8976 29.1117 15.2105 29.7328 13.4905 30.2099L13.4874 30.2108L13.4844 30.2116C13.1358 30.3052 12.8068 30.4088 12.4967 30.5197C13.3594 30.4886 14.2302 30.5229 15.1023 30.6022C17.4575 30.8166 19.888 31.37 22.2422 31.9059C22.6058 31.9888 22.9676 32.0711 23.3271 32.1518C26.046 32.7618 28.636 33.2753 31.0236 33.2227C33.3664 33.1713 35.4549 32.575 37.2363 31.0332C39.9754 27.5765 43.8071 26.3113 46.3204 26.6836L47.0295 26.7887L47.0751 27.6082C47.1044 28.1363 46.98 28.6974 46.8123 29.1959C46.6385 29.7124 46.3891 30.2468 46.0961 30.7476C45.6401 31.5273 45.0147 32.3328 44.3065 32.8443C44.2403 33.2111 44.0786 33.5297 43.8407 33.7744C43.4975 34.1272 43.0744 34.2478 42.7702 34.2597C42.5687 34.2676 42.3305 34.2121 42.1834 34.1756C42.0018 34.1307 41.8007 34.0714 41.6194 34.0147C41.5758 34.0012 41.5329 33.9875 41.491 33.9741C40.796 35.03 40.4302 36.1698 40.2393 37.1035C40.225 37.1729 40.2119 37.241 40.1996 37.3078C40.9297 36.8868 41.542 36.4404 42.0166 36.0529C42.3859 35.7514 42.6693 35.4875 42.8577 35.3021C42.9518 35.2094 43.022 35.1366 43.067 35.0888C43.0895 35.0648 43.1057 35.0472 43.1155 35.0365C43.1204 35.0311 43.1237 35.0274 43.1253 35.0256L43.1262 35.0246L44.0058 34.0245L44.4749 35.1949C44.4888 35.1911 44.5038 35.1868 44.5202 35.1816C44.5963 35.1572 44.681 35.1215 44.7653 35.0799C44.7814 35.072 44.797 35.0641 44.8123 35.0562C46.2561 31.3323 47.9008 28.8727 48.9107 27.5736C48.9354 27.5418 48.9956 27.3962 48.9744 27.0591C48.9665 26.9335 48.9492 26.8157 48.9317 26.7223L48.0585 25.5339C46.2964 24.5754 43.7711 24.2294 41.1471 24.3014C38.4682 24.3748 35.8169 24.8796 34.0232 25.4815L33.3232 23.6784L33.7798 24.5254C35.2418 24.0348 37.2253 23.6124 39.3334 23.415C39.5985 23.3901 39.8654 23.3689 40.1336 23.3516C43.1942 23.153 46.4083 23.4586 48.6039 24.7313L49.7213 26.2521C49.7213 26.2521 50.0914 27.5511 49.5579 28.2368C48.5702 29.5076 46.9131 31.9855 45.4823 35.7818C45.4823 35.7818 44.8481 36.2095 44.3861 36.2064C44.2606 36.2056 44.1553 36.1702 44.0685 36.1193C43.8356 35.9826 43.7357 35.7335 43.7357 35.7335C43.7357 35.7335 43.5037 35.9972 43.0693 36.3915C42.4481 36.9552 41.4134 37.7856 40.0522 38.4918C39.7722 38.637 39.4786 38.7769 39.1718 38.9082C39.1718 38.9082 39.162 38.4797 39.2432 37.8069C39.3908 36.5861 39.8377 34.5611 41.1861 32.8336C41.1861 32.8336 42.43 33.2763 42.7406 33.2641C43.0512 33.252 43.5825 33.0009 43.4528 32.2365C44.5375 31.7225 45.6624 29.9963 46.061 28.6541C46.0855 28.5714 46.1073 28.4902 46.1263 28.4107C46.1911 28.1377 46.2211 27.886 46.2093 27.6716C43.974 27.3403 40.3862 28.4927 37.8258 31.7699C33.5888 35.5037 27.8792 34.2044 22.0679 32.882C17.8837 31.9297 13.6467 30.9655 9.86853 31.8594C9.05811 32.051 8.26879 32.3284 7.50562 32.7094C7.52414 32.7003 7.57071 32.6493 7.64742 32.5655C7.90756 32.2808 8.51425 31.617 9.54781 30.9191C10.4506 30.3094 11.679 29.6736 13.2866 29.2417C14.9655 28.7759 16.6125 28.1697 18.2144 27.428C22.2199 25.5321 24.271 21.9587 26.376 18.2913C27.3027 16.6768 28.2399 15.044 29.3589 13.528C29.3996 13.4729 29.4448 13.4112 29.4944 13.3434C30.9288 11.3801 36.0874 4.3196 46.4447 5.3006C47.2201 4.41165 48.0387 4.11249 48.846 3.8175C49.2396 3.67362 49.6307 3.53073 50.0128 3.32088C50.3553 3.13267 50.6907 2.89061 51.0142 2.54569C50.9491 3.12445 50.8585 3.60218 50.7482 4.0007C50.5388 4.75624 50.258 5.2271 49.9436 5.56217C49.7182 5.80229 49.4754 5.97268 49.2293 6.12812L49.9004 7.18495L50.813 8.62824L51.6923 10.0226C51.6923 10.0226 51.7909 11.5264 52.1007 12.3227C52.5862 13.5684 54.9624 18.1228 54.9624 18.1228C55.0921 18.4373 55.2513 18.7161 55.3968 18.9711C55.7614 19.6099 56.0409 20.0994 55.5597 20.6256C55.317 20.8944 55.3389 21.0574 55.372 21.3043L55.375 21.3273C55.3963 21.4855 54.0757 22.0185 53.6142 22.1326C52.4221 22.4266 51.6026 21.8769 51.1911 21.0568C51.1817 21.0383 51.1726 21.0196 51.1637 21.0007C51.1575 20.9875 51.1514 20.9741 51.1453 20.9608C50.9624 20.5563 50.8743 20.094 50.8854 19.6384C50.892 19.3634 50.9346 19.0909 51.0142 18.8347L50.2635 18.3351L51.8313 19.1691C51.6773 19.6649 51.7512 20.2749 52.0181 20.6923C52.2454 21.0478 52.6654 21.3475 53.4316 21.1588C53.6005 21.1169 53.9997 20.9749 54.3687 20.8146C54.4215 20.7917 54.4711 20.7696 54.5171 20.7483C54.5826 20.4209 54.7366 20.1667 54.9104 19.9622C54.8574 19.8442 54.785 19.7171 54.674 19.5221C54.6556 19.4899 54.6361 19.4556 54.6155 19.4194C54.4886 19.1959 54.3336 18.9163 54.1975 18.5951L54.1909 18.5824C54.1732 18.5484 54.1472 18.4985 54.1142 18.4348C54.0478 18.3071 53.9528 18.1236 53.8372 17.8995C53.606 17.4515 53.2925 16.8406 52.9635 16.1903C52.3187 14.9158 51.5748 13.412 51.3088 12.7295ZM50.7852 19.5414C50.869 19.1223 51.0142 18.8347 51.0142 18.8347C50.2635 18.3351 50.2635 18.3351 50.2635 18.3351L50.2629 18.3365L50.2621 18.3379L50.2605 18.3414L50.2564 18.3496C50.2535 18.3556 50.2498 18.363 50.2458 18.3715C50.2377 18.3887 50.2274 18.4107 50.2155 18.4375C50.192 18.4908 50.1617 18.5631 50.1289 18.6515C50.1009 18.7267 50.0703 18.8155 50.0403 18.9156C49.0329 18.1699 48.0062 17.776 47.1544 17.4492C47.0496 17.409 46.9477 17.3699 46.8485 17.3312C46.1478 17.0576 45.6503 16.831 45.2883 16.5174C44.9723 16.2437 44.7419 15.887 44.6373 15.2573L44.6371 15.2546C44.6359 15.2467 44.6339 15.2316 44.6313 15.2099C44.6264 15.1668 44.6194 15.0979 44.6131 15.0082C44.6009 14.8277 44.5925 14.568 44.6097 14.2639C44.6447 13.6453 44.7818 12.9087 45.1506 12.2756L43.8534 10.9768C43.7638 11.0681 41.9372 12.9299 42.2576 15.7754C39.8142 17.3077 38.7084 19.595 38.4614 21.9415C36.8601 22.2014 35.6557 22.5814 34.8157 22.9208C34.3354 23.1148 33.9749 23.2952 33.728 23.4316C33.6046 23.4998 33.5097 23.5571 33.4424 23.5995C33.4088 23.6206 33.3822 23.6382 33.3622 23.6516C33.3587 23.654 33.3554 23.6563 33.3522 23.6584C33.3466 23.6621 33.3417 23.6654 33.3377 23.6684L33.3345 23.6704C33.3326 23.6718 33.3307 23.6731 33.329 23.6742L33.3258 23.6766L33.3232 23.6784C33.3232 23.6784 33.3232 23.6784 33.7798 24.5254C33.7798 24.5254 35.4779 23.3184 39.2756 22.8268C39.2781 22.691 39.2837 22.5552 39.2924 22.4193C39.4386 20.1195 40.4801 17.8332 43.117 16.3898C43.1579 16.3674 43.199 16.3452 43.2405 16.3233C43.1763 16.0667 43.1346 15.8178 43.1116 15.5775C43.1114 15.5753 43.1112 15.5732 43.1109 15.571C42.8966 13.2996 44.356 11.7966 44.4295 11.7218C43.463 13.381 43.7833 15.4327 43.7833 15.4327C43.8228 15.674 43.8776 15.8923 43.9466 16.0908C44.0258 16.3189 44.1234 16.5209 44.2374 16.7013C44.8005 17.5933 45.762 17.9637 46.8628 18.3878C47.8145 18.7546 48.8703 19.1615 49.8622 19.98C49.9208 20.0281 49.9789 20.0777 50.0368 20.1289C50.3591 20.4132 50.6735 20.7441 50.974 21.1346C50.6769 20.5798 50.6965 19.9865 50.7852 19.5414Z" fill="#F5B923"/>
<path d="M33.7798 24.5254L33.3232 23.6784M33.7798 24.5254C35.2418 24.0348 37.2253 23.6124 39.3334 23.415C39.5985 23.3901 39.8654 23.3689 40.1336 23.3516C43.1942 23.153 46.4083 23.4586 48.6039 24.7313L49.7213 26.2521C49.7213 26.2521 50.0914 27.5511 49.5579 28.2368C48.5702 29.5076 46.9131 31.9855 45.4823 35.7818C45.4823 35.7818 44.8481 36.2095 44.3861 36.2064C44.2606 36.2056 44.1553 36.1702 44.0685 36.1193C43.8356 35.9826 43.7357 35.7335 43.7357 35.7335C43.7357 35.7335 43.5037 35.9972 43.0693 36.3915C42.4481 36.9552 41.4134 37.7856 40.0522 38.4918C39.7722 38.637 39.4786 38.7769 39.1718 38.9082C39.1718 38.9082 39.162 38.4797 39.2432 37.8069C39.3908 36.5861 39.8377 34.5611 41.1861 32.8336C41.1861 32.8336 42.43 33.2763 42.7406 33.2641C43.0512 33.252 43.5825 33.0009 43.4528 32.2365C44.5375 31.7225 45.6624 29.9963 46.061 28.6541C46.0855 28.5714 46.1073 28.4902 46.1263 28.4107C46.1911 28.1377 46.2211 27.886 46.2093 27.6716C43.974 27.3403 40.3862 28.4927 37.8258 31.7699C33.5888 35.5037 27.8792 34.2044 22.0679 32.882C17.8837 31.9297 13.6467 30.9655 9.86853 31.8594C9.05811 32.051 8.26879 32.3284 7.50562 32.7094C7.52414 32.7002 7.57071 32.6493 7.64742 32.5655C7.90756 32.2808 8.51425 31.617 9.54781 30.9191C10.4506 30.3094 11.679 29.6736 13.2866 29.2417C14.9655 28.7759 16.6125 28.1697 18.2144 27.428C22.2199 25.5321 24.271 21.9587 26.376 18.2913C27.3027 16.6768 28.2399 15.044 29.3589 13.528C29.3996 13.4729 29.4448 13.4112 29.4944 13.3434C30.9288 11.3801 36.0874 4.3196 46.4447 5.3006C47.2201 4.41165 48.0387 4.11249 48.846 3.8175C49.2396 3.67362 49.6307 3.53073 50.0128 3.32088C50.3553 3.13267 50.6907 2.89061 51.0142 2.54569C50.9491 3.12445 50.8585 3.60218 50.7482 4.0007C50.5388 4.75624 50.258 5.2271 49.9436 5.56217C49.7182 5.80229 49.4755 5.97268 49.2293 6.12812L49.9004 7.18496L50.813 8.62824L51.6923 10.0226C51.6923 10.0226 51.7909 11.5264 52.1007 12.3227C52.5862 13.5684 54.9624 18.1228 54.9624 18.1228C55.0921 18.4373 55.2513 18.7161 55.3968 18.9711C55.7614 19.6099 56.0409 20.0994 55.5597 20.6256C55.317 20.8944 55.3389 21.0574 55.372 21.3043L55.375 21.3273C55.3963 21.4855 54.0757 22.0185 53.6142 22.1326C52.4221 22.4266 51.6026 21.8769 51.1911 21.0568C51.1817 21.0383 51.1726 21.0196 51.1637 21.0007C51.1575 20.9875 51.1514 20.9741 51.1453 20.9608C50.9624 20.5563 50.8743 20.094 50.8854 19.6384C50.892 19.3634 50.9346 19.0909 51.0142 18.8347M33.7798 24.5254C33.3232 23.6784 33.3232 23.6784 33.3232 23.6784M33.7798 24.5254C33.7798 24.5254 35.4779 23.3184 39.2756 22.8268C39.2781 22.691 39.2837 22.5552 39.2924 22.4193C39.4386 20.1195 40.4801 17.8332 43.117 16.3898C43.1579 16.3674 43.199 16.3452 43.2405 16.3233C43.1763 16.0667 43.1346 15.8178 43.1116 15.5775C43.1114 15.5753 43.1112 15.5732 43.1109 15.571C42.8966 13.2996 44.356 11.7966 44.4295 11.7218C43.463 13.381 43.7833 15.4327 43.7833 15.4327C43.8228 15.674 43.8776 15.8923 43.9466 16.0908C44.0258 16.3189 44.1234 16.5209 44.2374 16.7013C44.8005 17.5933 45.762 17.9637 46.8628 18.3878C47.8145 18.7546 48.8703 19.1615 49.8622 19.98C49.9208 20.0281 49.9789 20.0777 50.0368 20.1289C50.3591 20.4132 50.6735 20.7441 50.974 21.1346C50.6769 20.5798 50.6965 19.9865 50.7852 19.5414C50.869 19.1223 51.0142 18.8347 51.0142 18.8347M33.3232 23.6784L34.0232 25.4815C35.8169 24.8796 38.4682 24.3748 41.1471 24.3014C43.7711 24.2294 46.2964 24.5754 48.0585 25.5339L48.9317 26.7223C48.9492 26.8157 48.9665 26.9335 48.9744 27.0591C48.9956 27.3962 48.9354 27.5418 48.9107 27.5736C47.9008 28.8727 46.2561 31.3323 44.8123 35.0562C44.797 35.0641 44.7814 35.072 44.7653 35.0799C44.681 35.1215 44.5963 35.1572 44.5202 35.1816C44.5038 35.1868 44.4888 35.1911 44.4749 35.1949L44.0058 34.0245L43.1262 35.0246L43.1253 35.0256C43.1237 35.0274 43.1204 35.0311 43.1155 35.0365C43.1057 35.0472 43.0896 35.0648 43.067 35.0888C43.022 35.1366 42.9518 35.2094 42.8577 35.3021C42.6693 35.4875 42.3859 35.7514 42.0166 36.0529C41.542 36.4404 40.9297 36.8868 40.1996 37.3078C40.2119 37.241 40.225 37.1729 40.2393 37.1035C40.4302 36.1698 40.796 35.03 41.491 33.9741C41.5329 33.9875 41.5758 34.0012 41.6194 34.0147C41.8007 34.0714 42.0017 34.1307 42.1834 34.1756C42.3305 34.2121 42.5688 34.2676 42.7702 34.2597C43.0744 34.2478 43.4975 34.1272 43.8407 33.7744C44.0786 33.5297 44.2403 33.2111 44.3065 32.8443C45.0147 32.3328 45.6401 31.5273 46.0961 30.7476C46.3891 30.2468 46.6385 29.7124 46.8123 29.1959C46.98 28.6974 47.1044 28.1363 47.0751 27.6082L47.0295 26.7887L46.3204 26.6836C43.8071 26.3113 39.9754 27.5765 37.2363 31.0332C35.4549 32.575 33.3664 33.1713 31.0236 33.2227C28.636 33.2753 26.046 32.7618 23.3271 32.1518C22.9676 32.0711 22.6058 31.9888 22.2422 31.9059C19.888 31.37 17.4575 30.8166 15.1023 30.6022C14.2302 30.5229 13.3594 30.4886 12.4967 30.5197C12.8068 30.4088 13.1358 30.3052 13.4844 30.2116L13.4874 30.2108L13.4905 30.2099C15.2105 29.7328 16.8976 29.1117 18.5389 28.3517L18.542 28.3502L18.545 28.3489C21.6353 26.8862 23.6217 24.4914 25.2766 21.9032C25.9156 20.9039 26.5166 19.8567 27.1077 18.8268C27.2747 18.5358 27.4409 18.2462 27.607 17.9595C28.3687 16.6442 29.1393 15.3661 30.0204 14.1725C30.0612 14.1176 30.1061 14.0558 30.1555 13.9884C31.5559 12.0714 36.4625 5.35465 46.3733 6.29336L46.7735 6.33126L47.0577 6.00551C47.6459 5.33106 48.256 5.07927 49.0189 4.79966C49.058 4.78537 49.0976 4.77096 49.1377 4.75638C49.2638 4.71042 49.3951 4.66263 49.5303 4.61046C49.3417 4.88887 49.1186 5.06121 48.8112 5.25527L47.9477 5.80061L49.1982 7.77018L50.8508 10.387C50.866 10.5508 50.8893 10.7745 50.9227 11.0249C50.9873 11.5087 51.1024 12.199 51.3086 12.7289C51.5746 13.4113 52.3187 14.9158 52.9635 16.1903C53.2925 16.8406 53.606 17.4515 53.8372 17.8995C53.9528 18.1236 54.0478 18.3071 54.1142 18.4348C54.1472 18.4985 54.1732 18.5484 54.1909 18.5824L54.1975 18.5951C54.3336 18.9163 54.4886 19.1959 54.6155 19.4194C54.6361 19.4556 54.6556 19.4899 54.674 19.5221C54.785 19.7171 54.8574 19.8442 54.9104 19.9622C54.7366 20.1667 54.5826 20.4209 54.5171 20.7483C54.4711 20.7696 54.4215 20.7917 54.3687 20.8146C53.9997 20.9749 53.6005 21.1169 53.4316 21.1588C52.6654 21.3475 52.2454 21.0478 52.0181 20.6923C51.7512 20.2749 51.6773 19.6649 51.8313 19.1691L50.2635 18.3351M33.3232 23.6784L33.3258 23.6766L33.329 23.6742C33.3307 23.6731 33.3326 23.6718 33.3345 23.6704L33.3377 23.6684C33.3417 23.6654 33.3466 23.6621 33.3522 23.6584C33.3554 23.6563 33.3587 23.654 33.3622 23.6516C33.3822 23.6382 33.4088 23.6206 33.4424 23.5995C33.5097 23.5571 33.6046 23.4998 33.728 23.4316C33.9749 23.2952 34.3354 23.1148 34.8157 22.9208C35.6557 22.5814 36.8601 22.2014 38.4614 21.9415C38.7084 19.595 39.8142 17.3077 42.2576 15.7754C41.9372 12.9299 43.7633 11.0687 43.8529 10.9774L45.1506 12.2756C44.7818 12.9087 44.6447 13.6453 44.6097 14.2639C44.5925 14.568 44.6009 14.8277 44.6131 15.0082C44.6194 15.0979 44.6264 15.1668 44.6313 15.2099C44.6339 15.2316 44.6359 15.2467 44.6371 15.2546L44.6373 15.2573C44.7419 15.887 44.9723 16.2437 45.2883 16.5174C45.6503 16.831 46.1478 17.0576 46.8485 17.3312C46.9477 17.3699 47.0496 17.409 47.1544 17.4492C48.0062 17.776 49.0329 18.1699 50.0403 18.9156C50.0703 18.8155 50.1009 18.7267 50.1289 18.6515C50.1617 18.5631 50.192 18.4908 50.2155 18.4375C50.2274 18.4107 50.2377 18.3887 50.2458 18.3715C50.2498 18.363 50.2535 18.3556 50.2564 18.3496L50.2605 18.3414L50.2621 18.3379L50.2629 18.3365L50.2635 18.3351M51.0142 18.8347L50.2635 18.3351M51.0142 18.8347C50.2635 18.3351 50.2635 18.3351 50.2635 18.3351M54.5176 21.479L54.5174 21.4767" stroke="#F5B923" stroke-width="1.26697"/>
</g>
<defs>
<clipPath id="clip0_7010_1609">
<rect width="57.0136" height="41.81" fill="white" transform="scale(1.00454)"/>
</clipPath>
</defs>
</svg>
