<svg width="71" height="39" viewBox="0 0 71 39" fill="none" xmlns="http://www.w3.org/2000/svg">
<g clip-path="url(#clip0_7010_1526)">
<g clip-path="url(#clip1_7010_1526)">
<path d="M25.8305 38.8403L28.5908 28.1749H24.1777L24.7655 25.76H36.6367L36.0583 28.1749H32.2038L29.4434 38.8403H25.8305Z" fill="white"/>
<path d="M34.1305 38.8403L37.4692 25.76H47.0541L46.3385 28.1577H40.6224L39.9032 31.011H45.4998L44.9308 33.297H39.3437L38.5776 36.4425H44.5683L43.7154 38.8403H34.1305Z" fill="white"/>
<path d="M55.4523 38.6475C55.2709 38.6876 55.0175 38.7278 54.6922 38.7679C54.3731 38.808 54.0259 38.8452 53.6505 38.8796C53.2814 38.914 52.906 38.9426 52.5244 38.9655C52.149 38.9884 51.8112 38.9999 51.5109 38.9999C50.6538 38.9999 49.8905 38.9226 49.2211 38.7679C48.5517 38.6132 47.9855 38.3639 47.5225 38.0202C47.0596 37.6764 46.7061 37.2295 46.4621 36.6795C46.2181 36.1237 46.0961 35.4476 46.0961 34.6512C46.0961 34.3419 46.1118 34.0181 46.143 33.6801C46.1743 33.3421 46.2275 32.984 46.3026 32.6058L46.6123 31.1104C46.85 29.9359 47.1847 28.9762 47.6164 28.2314C48.0543 27.4808 48.5861 26.8936 49.2117 26.4696C49.8373 26.0399 50.5599 25.7448 51.3795 25.5844C52.2053 25.424 53.1281 25.3438 54.1479 25.3438C54.4482 25.3438 54.7829 25.3552 55.152 25.3781C55.5211 25.401 55.884 25.4297 56.2406 25.4641C56.6035 25.4984 56.9351 25.5386 57.2353 25.5844C57.5419 25.6245 58.0542 25.7932 58.2231 25.839L57.6448 28.0509C57.407 28.0337 57.0101 28.0165 56.7286 27.9994C56.4471 27.9822 56.153 27.965 55.8465 27.9478C55.5462 27.9306 55.2396 27.9191 54.9268 27.9134C54.6202 27.902 54.3199 27.8962 54.0259 27.8962C53.4941 27.8962 53.0218 27.9449 52.6089 28.0423C52.2022 28.1397 51.8425 28.3202 51.5297 28.5838C51.2231 28.8416 50.9603 29.1997 50.7414 29.658C50.5287 30.1107 50.3504 30.6951 50.2065 31.4112L49.8968 32.9066C49.7842 33.491 49.7279 33.978 49.7279 34.3676C49.7279 34.7802 49.7842 35.1211 49.8968 35.3903C50.0094 35.6539 50.1752 35.863 50.3941 36.0177C50.6194 36.1724 50.8946 36.2813 51.22 36.3443C51.5516 36.4016 51.9301 36.4302 52.3555 36.4302C52.6495 36.4302 52.953 36.4274 53.2658 36.4216C53.5786 36.4102 53.8883 36.3987 54.1948 36.3873C54.5014 36.3758 54.7985 36.3615 55.0863 36.3443C55.3741 36.3214 55.9114 36.3013 56.1492 36.2841L55.4523 38.6475Z" fill="white"/>
<path d="M65.4786 38.8403L66.6763 33.3314H61.1712L59.7083 38.8403H56.3698L59.434 25.76H62.7724L61.631 30.8305H67.2734L68.68 25.76H71.9996L68.7982 38.8403H65.4786Z" fill="white"/>
<path d="M1.54153 4.56806C1.22094 8.45576 5.14821 10.3709 7.15192 10.8425C5.92298 10.4488 4.7252 8.50497 4.27993 7.58225C5.90516 8.48446 10.2911 10.2766 14.8328 10.2274C19.3745 10.1782 21.356 12.1343 21.779 13.1185L13.7642 13.7952L17.972 14.1643L19.8421 15.3946L23.9163 14.6564C31.1831 14.9024 33.6232 19.9261 33.9348 22.4072L30.5953 21.2999C24.7178 19.7252 17.638 22.2431 14.8328 23.699L17.638 21.2999C6.95154 23.6129 1.47474 30.3425 0.0721403 33.4182C-0.515615 37.6504 2.63244 38.8725 4.27993 38.9545H21.3783C23.195 38.9545 23.8272 37.9293 23.9163 37.4166L24.8514 33.9718C25.8131 31.216 23.7382 30.8961 22.5805 31.0807C20.2651 31.0397 14.953 30.9823 12.228 31.0807C9.50294 31.1791 8.73262 30.1375 8.6881 29.6043C8.58123 27.1438 11.0035 26.1185 12.228 25.9135L11.8272 27.5129C16.4758 22.9362 22.1352 21.9561 24.3838 22.0381C24.3838 22.0381 33.022 22.2636 35.0035 23.2684C34.0951 15.8867 27.5452 13.4261 24.3838 13.1185C22.0862 10.4611 17.5935 9.59172 15.6343 9.48919C14.5656 8.40654 15.7679 8.13588 16.5026 8.13588H26.5879C28.2443 8.13588 28.7029 7.56175 28.7252 7.27468L30.9961 1.55386C31.9579 0.126733 30.8625 -0.0660106 30.1946 0.0160088H5.01463C3.99051 -0.0865148 1.86212 0.680362 1.54153 4.56806Z" fill="#FFC700"/>
<path d="M7.68598 11.4577C2.60991 11.4577 0.539414 8.01292 0.138672 6.29053V10.0429C2.48969 11.9129 6.1498 11.7653 7.68598 11.4577Z" fill="white"/>
<path d="M10.7583 16.0098C4.98765 15.6161 1.27411 17.076 0.138672 17.8552V22.2227C0.138672 18.5319 7.21845 16.5429 10.7583 16.0098Z" fill="white"/>
</g>
</g>
<defs>
<clipPath id="clip0_7010_1526">
<rect width="71" height="39" fill="white"/>
</clipPath>
<clipPath id="clip1_7010_1526">
<rect width="71" height="39" fill="white"/>
</clipPath>
</defs>
</svg>
