<svg width="42" height="42" viewBox="0 0 42 42" fill="none" xmlns="http://www.w3.org/2000/svg">
<g clip-path="url(#clip0_7010_1618)">
<path d="M40.3541 12.8503C38.333 8.05054 34.6005 4.17301 29.8812 1.97049C25.162 -0.232043 19.7927 -0.602416 14.8157 0.931266C9.83877 2.46494 5.60921 5.79326 2.94823 10.27C0.287242 14.7469 -0.61534 20.0526 0.41572 25.1575C1.44678 30.2624 4.33793 34.802 8.52785 37.895C12.7178 40.9881 17.9075 42.4139 23.0896 41.8956C28.2717 41.3774 33.0764 38.9521 36.5707 35.0907C40.0653 31.2292 42.0002 26.2069 41.9999 20.999C42.0032 18.1999 41.4436 15.4287 40.3541 12.8503ZM39.7946 20.999C39.7951 22.5758 39.5961 24.1463 39.2024 25.6732L35.0202 24.3147C35.5409 22.0942 35.532 19.7823 34.9941 17.5658L39.1742 16.2073C39.5866 17.7711 39.7952 19.3817 39.7946 20.999ZM21.0718 34.2399C18.4526 34.2421 15.8915 33.4673 13.7126 32.0138C11.5338 30.5601 9.83494 28.4929 8.83111 26.0737C7.82726 23.6544 7.5635 20.9917 8.07317 18.4226C8.58284 15.8533 9.84306 13.4931 11.6944 11.6402C13.5457 9.7873 15.905 8.52515 18.4738 8.01337C21.0426 7.50157 23.7055 7.76315 26.1255 8.76501C28.5456 9.76686 30.6142 11.464 32.0696 13.6417C33.5249 15.8194 34.3018 18.3798 34.3018 20.999C34.2984 24.5097 32.9023 27.8755 30.4199 30.3579C27.9374 32.8403 24.5716 34.2365 21.061 34.2399H21.0718ZM2.34912 20.999C2.34889 19.3825 2.55744 17.7726 2.96957 16.2095L7.14955 17.568C6.61174 19.7844 6.60279 22.0963 7.12342 24.3169L2.93909 25.6754C2.5384 24.1487 2.33285 22.5774 2.32735 20.999H2.34912ZM38.5058 14.1173L34.328 15.4758C33.6057 13.7486 32.5517 12.1799 31.2257 10.8583C30.944 10.5782 30.6538 10.3104 30.3549 10.0549L32.9129 6.50416C35.3861 8.52776 37.3034 11.1478 38.484 14.1173H38.5058ZM31.1473 5.20663L28.5674 8.75959C26.6358 7.57237 24.4477 6.86539 22.1865 6.69792V2.30024C25.3657 2.48808 28.4436 3.4888 31.1256 5.20663H31.1473ZM19.9789 2.30024V6.69792C17.7178 6.86539 15.5297 7.57237 13.5979 8.75959L11.0182 5.20663C13.7 3.4888 16.7779 2.48808 19.9572 2.30024H19.9789ZM9.23079 6.50198L11.7953 10.0549C11.495 10.3104 11.2047 10.5782 10.9246 10.8583C9.59903 12.1794 8.54509 13.7474 7.82224 15.4736L3.64448 14.1173C4.82391 11.1483 6.73872 8.52777 9.20904 6.50198H9.23079ZM3.61617 27.7719L7.79394 26.4155C8.51236 28.1838 9.57672 29.7907 10.9246 31.1419C11.1887 31.4062 11.4608 31.6579 11.741 31.8974L9.15896 35.4504C6.67992 33.407 4.7644 30.7639 3.59438 27.7719H3.61617ZM10.9246 36.7523L13.5044 33.2014C15.4519 34.4106 17.6626 35.1312 19.9485 35.3023V39.7C16.7362 39.5144 13.627 38.4987 10.9246 36.7523ZM22.1538 39.7V35.3023C24.4398 35.1331 26.6507 34.413 28.598 33.2036L31.1777 36.7544C28.4774 38.4982 25.3716 39.513 22.1626 39.7H22.1538ZM32.9586 35.4525L30.3766 31.8995C30.6567 31.6572 30.9296 31.4046 31.1952 31.1419C32.5489 29.7924 33.6186 28.1853 34.341 26.4155L38.5188 27.7741C37.3531 30.765 35.4421 33.4082 32.9673 35.4525H32.9586Z" fill="#F5B923"/>
<path d="M16.6249 15.7498C16.798 15.7498 16.9671 15.6985 17.1111 15.6024C17.2549 15.5062 17.3671 15.3696 17.4333 15.2097C17.4996 15.0498 17.5169 14.8739 17.4831 14.7041C17.4493 14.5344 17.366 14.3785 17.2436 14.2561C17.1212 14.1338 16.9654 14.0505 16.7956 14.0166C16.6259 13.9829 16.4499 14.0002 16.2901 14.0664C16.1302 14.1327 15.9935 14.2448 15.8974 14.3887C15.8013 14.5326 15.7499 14.7018 15.7499 14.8748C15.7503 15.1068 15.8426 15.3291 16.0066 15.4932C16.1706 15.6572 16.393 15.7495 16.6249 15.7498Z" fill="#F5B923"/>
<path d="M31.6636 22.5825C31.9522 22.5829 32.2354 22.5045 32.4828 22.3558C32.73 22.207 32.9318 21.9935 33.0666 21.7385C33.2012 21.4834 33.2635 21.1964 33.2468 20.9084C33.2301 20.6205 33.1349 20.3426 32.9717 20.1047C32.8084 19.8668 32.5832 19.6782 32.3204 19.5589C32.0576 19.4397 31.7672 19.3947 31.4806 19.4284C31.1939 19.4622 30.9221 19.5736 30.6943 19.7507C30.4664 19.9277 30.2913 20.1636 30.1879 20.4329H23.2353C23.1322 20.031 22.9229 19.6642 22.6293 19.3709C22.3358 19.0775 21.9688 18.8683 21.5667 18.7653V11.8099C21.9121 11.6774 22.2 11.4283 22.3808 11.1058C22.5616 10.7832 22.6236 10.4076 22.5562 10.0441C22.4888 9.68065 22.2961 9.35222 22.0118 9.11583C21.7274 8.87944 21.3692 8.75002 20.9993 8.75002C20.6294 8.75002 20.2712 8.87944 19.9868 9.11583C19.7024 9.35222 19.5098 9.68065 19.4424 10.0441C19.375 10.4076 19.4371 10.7832 19.6178 11.1058C19.7985 11.4283 20.0866 11.6774 20.4319 11.8099V18.7585C20.0298 18.8616 19.6627 19.0707 19.3692 19.3641C19.0757 19.6575 18.8664 20.0243 18.7632 20.4262H11.8107C11.678 20.0813 11.4286 19.7937 11.1058 19.6133C10.7831 19.4328 10.4074 19.371 10.0438 19.4385C9.68024 19.506 9.35175 19.6986 9.11535 19.9827C8.87895 20.2669 8.74953 20.6248 8.74953 20.9944C8.74953 21.364 8.87895 21.7219 9.11535 22.0061C9.35175 22.2902 9.68024 22.4828 10.0438 22.5503C10.4074 22.6178 10.7831 22.556 11.1058 22.3755C11.4286 22.1951 11.678 21.9076 11.8107 21.5626H18.7632C18.864 21.9658 19.0716 22.3343 19.364 22.6297C19.6563 22.9251 20.0229 23.1364 20.4252 23.2415V30.1901C20.0798 30.3226 19.7918 30.5717 19.6111 30.8943C19.4303 31.2168 19.3683 31.5924 19.4357 31.9559C19.5031 32.3193 19.6956 32.6478 19.9801 32.8841C20.2645 33.1206 20.6227 33.25 20.9926 33.25C21.3625 33.25 21.7206 33.1206 22.0051 32.8841C22.2894 32.6478 22.482 32.3193 22.5494 31.9559C22.6169 31.5924 22.5548 31.2168 22.3741 30.8943C22.1934 30.5717 21.9053 30.3226 21.56 30.1901V23.2415C21.9621 23.1384 22.3292 22.9293 22.6227 22.6359C22.9162 22.3425 23.1255 21.9757 23.2285 21.5738H30.1812C30.2973 21.8721 30.5011 22.1281 30.7657 22.3082C31.0304 22.4882 31.3434 22.5839 31.6636 22.5825Z" fill="#F5B923"/>
</g>
<defs>
<clipPath id="clip0_7010_1618">
<rect width="41.81" height="41.81" fill="white" transform="scale(1.00454)"/>
</clipPath>
</defs>
</svg>
