<svg width="51" height="42" viewBox="0 0 51 42" fill="none" xmlns="http://www.w3.org/2000/svg">
<g clip-path="url(#clip0_7010_1579)">
<mask id="mask0_7010_1579" style="mask-type:luminance" maskUnits="userSpaceOnUse" x="0" y="0" width="51" height="42">
<path d="M50.9998 0H0V41.9998H50.9998V0Z" fill="white"/>
</mask>
<g mask="url(#mask0_7010_1579)">
<path d="M24.5371 26.7017C24.5189 26.9751 24.4506 27.2027 24.3321 27.3848C24.2137 27.567 24.036 27.7151 23.7992 27.8289C23.5989 27.9246 23.3484 27.9929 23.0477 28.0339C22.747 28.0704 22.4326 28.0887 22.1048 28.0887V29.7487H24.2501V35.1247H22.1048V36.9007H28.8957V35.1247H26.7984V26.7019L24.5371 26.7017Z" fill="white"/>
<path d="M25.4998 0C24.2855 0 23.201 4.39446 22.2185 5.10816C21.2361 5.82186 16.7207 5.49529 16.3456 6.6502C15.9702 7.80511 19.8152 10.1945 20.1906 11.3492C20.5659 12.5039 18.8599 16.6968 19.8423 17.4105C20.8248 18.1242 24.2857 15.2062 25.4998 15.2062C26.7142 15.2062 30.1749 18.1242 31.1573 17.4105C32.1398 16.6968 30.4338 12.5041 30.8091 11.3492C31.1845 10.1943 35.0293 7.80493 34.6541 6.6502C34.2787 5.4955 29.7639 5.82186 28.7814 5.10816C27.7989 4.39446 26.7142 0 25.4998 0Z" fill="#E4081C"/>
<path d="M34.6203 33.5348C34.6203 31.6413 36.1554 30.1063 38.0489 30.1063H47.5712C49.465 30.1063 50.9997 31.6413 50.9997 33.5348V42H34.6203V33.5348Z" fill="#F7B500"/>
<path d="M17.1243 24.9859C17.1243 23.0924 18.6593 21.5574 20.5528 21.5574H28.9584C30.8519 21.5574 32.3869 23.0924 32.3869 24.9859V41.9998H17.1243V24.9859Z" fill="#FFD300"/>
<path d="M0 30.1896C0 28.2961 1.53502 26.7611 3.42855 26.7611H11.8341C13.7277 26.7611 15.2627 28.2961 15.2627 30.1896V42.3716H0V30.1896Z" fill="#E28900"/>
<path fill-rule="evenodd" clip-rule="evenodd" d="M45.238 20.3589L45.2715 20.3521C44.1139 20.1049 43.2238 19.1729 43.0283 18.0026L42.9388 17.4691L42.8554 17.9658C42.6588 19.1371 41.7683 20.0687 40.6094 20.3156L40.5759 20.3228C41.7338 20.5697 42.6231 21.5009 42.8193 22.6713L42.9092 23.2055L42.9923 22.7084C43.1886 21.5374 44.0788 20.6058 45.238 20.3589Z" fill="#F7B500"/>
<path fill-rule="evenodd" clip-rule="evenodd" d="M9.49904 12.0009L9.5218 11.996C8.73456 11.8276 8.12929 11.1941 7.99609 10.398L7.93532 10.0351L7.87845 10.3729C7.74495 11.1693 7.13934 11.8032 6.35116 11.9709L6.3284 11.9758C7.11594 12.1439 7.72091 12.7778 7.85411 13.5732L7.91488 13.9367L7.97141 13.5986C8.10525 12.8019 8.71086 12.1683 9.49904 12.0009Z" fill="#F7B500"/>
<path d="M22.452 29.4508L24.5863 27.9594H26.6049V36.9593H24.3549V30.5565L22.452 31.8679V29.4508Z" fill="#E28900"/>
<path d="M22.0793 29.079L24.2135 27.5876H26.2321V36.5875H23.9821V30.1847L22.0793 31.4961V29.079Z" fill="#F9B32A"/>
<path d="M5.52006 38.4763V36.8821L8.5029 34.7941C8.78405 34.5952 8.98633 34.4444 9.10976 34.3415C9.24004 34.2318 9.33604 34.1186 9.39776 34.0021C9.46633 33.8786 9.50061 33.7312 9.50061 33.5598C9.50061 33.3061 9.41147 33.1038 9.23319 32.9529C9.06176 32.7952 8.81833 32.7164 8.5029 32.7164C8.15319 32.7164 7.87205 32.8089 7.65948 32.9941C7.45377 33.1724 7.34063 33.4226 7.32005 33.7449H5.52006C5.53378 33.2855 5.64692 32.8604 5.85949 32.4695C6.07206 32.0718 6.4012 31.7495 6.84691 31.5027C7.29948 31.2489 7.86519 31.1221 8.54405 31.1221C9.13376 31.1221 9.63776 31.2215 10.056 31.4204C10.4743 31.6192 10.7932 31.8935 11.0126 32.2432C11.232 32.5861 11.3417 32.9769 11.3417 33.4158C11.3417 33.7724 11.2835 34.0844 11.1669 34.3518C11.0503 34.6192 10.8686 34.8695 10.6218 35.1026C10.3818 35.3358 10.0492 35.5998 9.62404 35.8946L8.20462 36.8821V36.9335H11.4857V38.4763H5.52006Z" fill="#FFD200"/>
<path d="M5.14826 38.1045V36.5103L8.13111 34.4223C8.41225 34.2234 8.61453 34.0726 8.73796 33.9697C8.86825 33.86 8.96425 33.7468 9.02596 33.6303C9.09453 33.5068 9.12882 33.3594 9.12882 33.188C9.12882 32.9343 9.03967 32.732 8.86139 32.5811C8.68996 32.4234 8.44653 32.3446 8.13111 32.3446C7.7814 32.3446 7.50025 32.4371 7.28768 32.6223C7.08197 32.8006 6.96883 33.0508 6.94826 33.3731H5.14826C5.16198 32.9137 5.27512 32.4886 5.48769 32.0977C5.70026 31.7 6.0294 31.3777 6.47512 31.1309C6.92768 30.8771 7.4934 30.7503 8.17225 30.7503C8.76196 30.7503 9.26596 30.8497 9.68424 31.0486C10.1025 31.2474 10.4214 31.5217 10.6408 31.8714C10.8602 32.2143 10.97 32.6051 10.97 33.044C10.97 33.4006 10.9117 33.7126 10.7951 33.98C10.6785 34.2474 10.4968 34.4977 10.25 34.7308C10.01 34.964 9.67739 35.228 9.25224 35.5228L7.83282 36.5103V36.5617H11.1139V38.1045H5.14826Z" fill="#F7B500"/>
<path d="M44.1541 35.2715C44.9358 35.2852 45.5426 35.4703 45.9746 35.8269C46.4066 36.1835 46.6226 36.7012 46.6226 37.38C46.6226 37.8189 46.5095 38.2166 46.2832 38.5732C46.0569 38.9297 45.7141 39.2143 45.2546 39.4269C44.7952 39.6395 44.2329 39.7457 43.5678 39.7457C42.9232 39.7457 42.3644 39.6429 41.8913 39.4372C41.425 39.2315 41.065 38.9503 40.8113 38.5937C40.5575 38.2303 40.417 37.8258 40.3896 37.38H42.169C42.1964 37.6543 42.3233 37.8703 42.5495 38.028C42.7758 38.1789 43.1049 38.2543 43.5369 38.2543C43.9483 38.2543 44.2638 38.1686 44.4832 37.9972C44.7095 37.8189 44.8226 37.5892 44.8226 37.308C44.8226 36.7046 44.4009 36.4029 43.5575 36.4029H41.9633V35.2406L43.9072 33.9343V33.8829H40.9758V32.3915H46.1803V33.8726L44.1541 35.2201V35.2715Z" fill="#E28900"/>
<path d="M43.7812 35.2715C44.5629 35.2852 45.1697 35.4703 45.6017 35.8269C46.0337 36.1835 46.2497 36.7012 46.2497 37.38C46.2497 37.8189 46.1366 38.2166 45.9103 38.5732C45.684 38.9297 45.3411 39.2143 44.8817 39.4269C44.4223 39.6395 43.86 39.7457 43.1949 39.7457C42.5505 39.7457 41.9916 39.6429 41.5185 39.4372C41.0522 39.2315 40.6922 38.9503 40.4385 38.5937C40.1848 38.2303 40.0442 37.8258 40.0168 37.38H41.7962C41.8236 37.6543 41.9505 37.8703 42.1768 38.028C42.403 38.1789 42.7322 38.2543 43.164 38.2543C43.5754 38.2543 43.8909 38.1686 44.1103 37.9972C44.3366 37.8189 44.4497 37.5892 44.4497 37.308C44.4497 36.7046 44.028 36.4029 43.1846 36.4029H41.5905V35.2406L43.5343 33.9343V33.8829H40.6031V32.3915H45.8074V33.8726L43.7812 35.2201V35.2715Z" fill="#FCD842"/>
</g>
</g>
<defs>
<clipPath id="clip0_7010_1579">
<rect width="50.7693" height="41.81" fill="white" transform="scale(1.00454)"/>
</clipPath>
</defs>
</svg>
