<svg width="42" height="42" viewBox="0 0 42 42" fill="none" xmlns="http://www.w3.org/2000/svg">
<g clip-path="url(#clip0_7010_1628)">
<path d="M40.9458 29.8336C40.9429 29.8107 40.9375 29.7883 40.9296 29.7667C40.9235 29.744 40.9148 29.7222 40.9036 29.7016C40.3697 28.2806 38.9175 27.2018 37.8971 26.147C36.5275 24.7315 35.1692 23.3092 33.7561 21.9361C32.3956 20.6146 31.013 19.3108 29.5844 18.0611C30.639 17.3766 31.918 16.5466 32.1405 15.2771C32.3279 14.2102 31.6321 13.5772 30.9492 12.9137L31.455 12.2908C32.0452 13.3561 32.748 14.3684 33.6332 15.2094C34.0463 15.602 35.0522 16.676 35.6661 16.1919C36.1412 15.8173 35.7864 15.3455 35.5413 14.957C35.1415 14.3206 34.7172 13.6997 34.2604 13.1025C33.6862 12.3524 33.0622 11.6352 32.346 11.0174C32.4968 10.4745 32.3744 9.88086 31.7764 9.64939C31.2666 9.45189 30.8293 9.68118 30.4364 9.97405C29.6562 8.70116 28.7947 7.46127 27.7556 6.38539C27.397 6.01423 26.3561 4.75675 25.7694 5.23099C25.2105 5.68282 25.918 6.57108 26.1632 7.01328C26.5426 7.70506 26.9822 8.36215 27.4767 8.97694C28.0352 9.66625 28.6849 10.2958 29.4303 10.7816L29.0931 11.055C28.4299 10.372 27.7968 9.67636 26.7299 9.86348C25.4609 10.0861 24.6312 11.364 23.947 12.4187C22.3687 10.6109 20.7044 8.87216 19.0135 7.17104C17.4601 5.61009 15.8738 4.07009 14.2786 2.54743C13.3094 1.62305 12.0882 0.52429 10.6661 1.17073C9.36828 1.75985 8.71805 3.35645 8.48372 4.66981C8.23012 6.09492 8.47986 7.56001 8.81389 8.95116C9.54384 11.9904 10.8392 14.8987 12.2392 17.6822C13.0845 19.3636 13.9833 21.0301 14.9741 22.631L9.98694 28.2445C8.74718 27.2153 7.44526 26.2336 6.01185 25.4916C4.9233 24.928 3.77865 24.434 2.60148 25.0581C1.54183 25.6204 0.729994 26.9126 1.0462 28.1315C1.23574 28.861 1.80144 29.5366 2.24818 30.1262C2.76639 30.8052 3.32111 31.4556 3.90989 32.0742C4.61793 32.8231 5.36233 33.5475 6.1496 34.2156C5.8081 34.8084 5.28117 35.628 5.83099 36.1778C6.3808 36.7277 7.19962 36.2019 7.7923 35.8592C8.32019 36.4799 8.88493 37.0721 9.46413 37.6439C10.6353 38.8 11.9446 40.0303 13.4238 40.7856C14.5685 41.3704 15.9099 40.8055 16.6584 39.8489C17.511 38.7593 17.2872 37.6331 16.7487 36.4681C15.9983 34.8457 14.9043 33.3913 13.7654 32.0203L19.3767 27.0331C21.4512 28.318 23.6268 29.4637 25.8321 30.5032C27.7105 31.3887 29.6372 32.1968 31.6271 32.8028C33.4078 33.3455 35.3915 33.851 37.2597 33.5377C39.0405 33.2402 41.4925 32.0011 40.9458 29.8336ZM33.245 12.7761C33.5942 13.187 33.9212 13.6154 34.2324 14.0553C34.4061 14.3001 34.5747 14.5481 34.7381 14.7993C34.8444 14.9616 35.2632 15.4481 35.227 15.6278C35.1955 15.7853 35.2598 15.6663 35.1331 15.6449C35.0849 15.6369 35.0158 15.5697 34.9758 15.5432C34.8352 15.4493 34.6987 15.3497 34.5664 15.2446C34.2596 14.9987 33.9709 14.7311 33.7024 14.4437C32.9572 13.6542 32.365 12.7429 31.8528 11.7896L32.0454 11.5394C32.4733 11.9234 32.8742 12.3367 33.245 12.7761ZM31.7497 10.963L31.29 11.5624L30.5306 12.4981C30.1898 12.1577 29.8492 11.817 29.5088 11.4763L30.1477 10.9584L30.5655 10.6193C30.6881 10.5198 30.8088 10.3978 30.9456 10.3189C31.4737 10.0145 32.0478 10.2895 31.7497 10.963ZM28.275 9.00752C27.8634 8.54961 27.4907 8.05818 27.1607 7.53833C26.9704 7.24209 26.7917 6.93893 26.6244 6.62889C26.5798 6.547 26.0999 5.66813 26.0753 5.7045C26.1268 5.62791 27.6021 7.08433 27.6929 7.18573C28.5599 8.15563 29.2947 9.23513 29.9717 10.3445L29.9148 10.3907C29.3007 10.0167 28.7589 9.53956 28.275 9.00752ZM9.98098 10.8743C9.12841 8.28882 8.17473 4.88441 10.0017 2.48072C10.4168 1.93447 11.016 1.49636 11.7325 1.57151C12.5224 1.65436 13.1719 2.31694 13.7215 2.83212C15.2219 4.2382 16.6919 5.6915 18.1489 7.14334C20.0187 9.00584 21.8552 10.9153 23.5893 12.9069L16.2011 21.247C15.9282 21.5549 15.6552 21.8629 15.3823 22.1709C13.2018 18.6355 11.28 14.8137 9.98098 10.8743ZM16.5529 38.8636C16.2671 39.6228 15.5397 40.2682 14.7352 40.4135C13.8226 40.5779 13.0091 39.8703 12.3242 39.3609C11.5866 38.8121 10.8939 38.202 10.229 37.5668C9.47184 36.8426 8.73586 36.0835 8.06588 35.2787C7.98015 35.1757 7.81734 35.176 7.70848 35.2325L7.17674 35.5078C7.05488 35.5712 6.93374 35.6367 6.81092 35.6981C6.59778 35.8043 6.59297 35.8611 6.3702 35.6384C6.15346 35.4216 6.19151 35.4389 6.29289 35.2318C6.3507 35.1137 6.41331 34.9982 6.47497 34.8816L6.7772 34.2999C6.83331 34.1921 6.83356 34.0275 6.73121 33.9422C5.92515 33.2715 5.16582 32.5362 4.44333 31.779C3.80826 31.1147 3.198 30.4221 2.6494 29.6835C2.13981 28.9986 1.43225 28.1852 1.59673 27.2725C1.74123 26.468 2.38762 25.7403 3.14647 25.4544C3.84487 25.192 4.48523 25.4289 5.1297 25.717C6.848 26.4851 8.37799 27.6571 9.81064 28.8601C9.92697 28.9579 10.1146 28.9875 10.2278 28.8601C12.0016 26.8638 13.7757 24.8673 15.5501 22.8707C18.0732 20.0222 20.5963 17.1732 23.1196 14.3238L24.1894 13.1162C24.198 13.1057 24.2061 13.0946 24.2134 13.0832C24.2214 13.0747 24.2287 13.0658 24.2356 13.0565C24.4523 12.7277 24.6848 12.4076 24.9201 12.0913C25.4048 11.4394 25.8953 10.6561 26.7427 10.4637C27.7059 10.245 28.2598 11.0634 28.8604 11.6634L30.3445 13.1458C30.9441 13.7457 31.7624 14.3019 31.5438 15.2639C31.3576 16.0828 30.62 16.5596 29.9895 17.0317C29.6497 17.2862 29.3055 17.5375 28.9513 17.7711C28.9419 17.7779 28.933 17.7854 28.9245 17.7933C28.9131 17.8007 28.9021 17.8087 28.8915 17.8174L20.3448 25.3902L19.1373 26.46L13.1484 31.7829C13.0219 31.8951 13.052 32.0839 13.1484 32.2002C14.3525 33.6328 15.5231 35.1627 16.2911 36.8814C16.5792 37.5259 16.8164 38.1636 16.5529 38.8636ZM36.4935 33.0364C34.7208 33.1405 32.8719 32.5969 31.2052 32.0517C27.8252 30.9461 24.6028 29.3434 21.5111 27.599C20.9492 27.2823 20.3895 26.9603 19.8383 26.6248L28.1006 19.3044L29.0998 18.419C30.4564 19.6016 31.7697 20.8371 33.0637 22.0869C34.4205 23.3974 35.7477 24.7374 37.0451 26.1069C37.6544 26.7508 38.2891 27.369 38.9057 28.0058C39.4456 28.5636 40.0961 29.1749 40.3608 29.9237C40.9388 31.9979 38.051 32.9452 36.4935 33.0364Z" fill="#F5B923"/>
<path d="M40.9458 29.8336C40.9429 29.8107 40.9375 29.7883 40.9296 29.7667C40.9235 29.744 40.9148 29.7222 40.9036 29.7016C40.3697 28.2806 38.9175 27.2018 37.8971 26.147C36.5275 24.7315 35.1692 23.3092 33.7561 21.9361C32.3956 20.6146 31.013 19.3108 29.5844 18.0611C30.639 17.3766 31.918 16.5466 32.1405 15.2771C32.3279 14.2102 31.6322 13.5772 30.9492 12.9137L31.455 12.2908C32.0452 13.3561 32.748 14.3684 33.6332 15.2094C34.0463 15.602 35.0522 16.676 35.6661 16.1919C36.1412 15.8173 35.7864 15.3455 35.5413 14.957C35.1415 14.3206 34.7172 13.6997 34.2604 13.1025C33.6862 12.3524 33.0622 11.6352 32.346 11.0174C32.4968 10.4745 32.3744 9.88086 31.7764 9.64939C31.2666 9.45189 30.8293 9.68118 30.4364 9.97405C29.6562 8.70117 28.7947 7.46127 27.7556 6.38539C27.397 6.01423 26.3561 4.75675 25.7694 5.23099C25.2105 5.68282 25.918 6.57108 26.1632 7.01328C26.5426 7.70506 26.9822 8.36215 27.4767 8.97694C28.0352 9.66625 28.6849 10.2958 29.4303 10.7816L29.0931 11.055C28.4299 10.372 27.7968 9.67636 26.7299 9.86348C25.4609 10.0861 24.6312 11.364 23.947 12.4187C22.3687 10.6109 20.7044 8.87216 19.0135 7.17104C17.4601 5.61009 15.8738 4.07009 14.2786 2.54743C13.3094 1.62305 12.0882 0.52429 10.6661 1.17073C9.36828 1.75985 8.71805 3.35645 8.48372 4.66981C8.23012 6.09492 8.47986 7.56001 8.81389 8.95116C9.54384 11.9904 10.8392 14.8987 12.2392 17.6822C13.0845 19.3636 13.9833 21.0301 14.9741 22.631L9.98694 28.2445C8.74718 27.2153 7.44526 26.2336 6.01185 25.4916C4.9233 24.928 3.77865 24.434 2.60148 25.0581C1.54183 25.6204 0.729994 26.9126 1.0462 28.1315C1.23574 28.861 1.80144 29.5366 2.24818 30.1262C2.76639 30.8052 3.32111 31.4556 3.90989 32.0742C4.61793 32.8231 5.36233 33.5475 6.1496 34.2156C5.8081 34.8084 5.28117 35.628 5.83099 36.1778C6.3808 36.7277 7.19962 36.2019 7.7923 35.8592C8.32019 36.4799 8.88493 37.0721 9.46413 37.6439C10.6353 38.8 11.9446 40.0303 13.4238 40.7856C14.5685 41.3704 15.9099 40.8055 16.6584 39.8489C17.511 38.7593 17.2872 37.6331 16.7487 36.4681C15.9983 34.8457 14.9043 33.3913 13.7654 32.0203L19.3767 27.0331C21.4512 28.318 23.6268 29.4637 25.8321 30.5032C27.7105 31.3887 29.6372 32.1968 31.6271 32.8028C33.4078 33.3454 35.3915 33.851 37.2597 33.5377C39.0405 33.2402 41.4925 32.0011 40.9458 29.8336ZM33.245 12.7761C33.5942 13.187 33.9212 13.6154 34.2324 14.0553C34.4061 14.3001 34.5747 14.5481 34.7381 14.7993C34.8444 14.9616 35.2632 15.4481 35.2271 15.6278C35.1955 15.7853 35.2598 15.6663 35.1331 15.6449C35.0849 15.6369 35.0158 15.5697 34.9758 15.5432C34.8352 15.4493 34.6987 15.3497 34.5664 15.2446C34.2596 14.9987 33.9709 14.7311 33.7024 14.4437C32.9572 13.6542 32.365 12.7429 31.8528 11.7896L32.0454 11.5394C32.4733 11.9234 32.8742 12.3367 33.245 12.7761ZM31.7497 10.963L31.29 11.5624L30.5306 12.4981C30.1898 12.1577 29.8492 11.817 29.5088 11.4763L30.1477 10.9584L30.5655 10.6193C30.6881 10.5199 30.8088 10.3978 30.9456 10.3189C31.4737 10.0145 32.0479 10.2895 31.7497 10.963ZM28.275 9.00752C27.8634 8.54961 27.4907 8.05818 27.1607 7.53833C26.9704 7.24209 26.7917 6.93894 26.6244 6.62889C26.5798 6.547 26.0999 5.66813 26.0753 5.7045C26.1268 5.62791 27.6021 7.08433 27.6929 7.18573C28.5599 8.15563 29.2947 9.23513 29.9717 10.3445L29.9148 10.3907C29.3007 10.0167 28.7589 9.53956 28.275 9.00752ZM9.98098 10.8743C9.12841 8.28882 8.17473 4.88441 10.0017 2.48072C10.4168 1.93447 11.016 1.49636 11.7325 1.57151C12.5224 1.65436 13.1719 2.31694 13.7215 2.83212C15.2219 4.2382 16.6919 5.6915 18.1489 7.14334C20.0187 9.00584 21.8552 10.9153 23.5893 12.9069L16.2011 21.247C15.9282 21.5549 15.6552 21.8629 15.3823 22.1709C13.2018 18.6355 11.28 14.8137 9.98098 10.8743ZM16.5529 38.8636C16.2671 39.6228 15.5397 40.2682 14.7352 40.4135C13.8226 40.5779 13.0091 39.8703 12.3242 39.3609C11.5866 38.8121 10.8939 38.202 10.229 37.5668C9.47184 36.8426 8.73586 36.0835 8.06588 35.2787C7.98015 35.1757 7.81734 35.176 7.70848 35.2325L7.17674 35.5078C7.05488 35.5712 6.93374 35.6367 6.81092 35.6981C6.59778 35.8043 6.59297 35.8611 6.3702 35.6384C6.15346 35.4216 6.19151 35.4389 6.29289 35.2318C6.3507 35.1137 6.41331 34.9982 6.47497 34.8816L6.7772 34.2999C6.83331 34.1921 6.83356 34.0275 6.7312 33.9422C5.92515 33.2715 5.16582 32.5362 4.44333 31.779C3.80826 31.1147 3.198 30.4221 2.6494 29.6835C2.13981 28.9986 1.43225 28.1852 1.59673 27.2725C1.74123 26.468 2.38762 25.7403 3.14647 25.4544C3.84487 25.192 4.48523 25.4289 5.1297 25.717C6.848 26.4851 8.37799 27.6571 9.81064 28.8601C9.92697 28.9579 10.1146 28.9875 10.2278 28.8601C12.0016 26.8638 13.7757 24.8673 15.5501 22.8707C18.0732 20.0222 20.5963 17.1732 23.1196 14.3238L24.1894 13.1162C24.198 13.1057 24.2061 13.0946 24.2134 13.0832C24.2214 13.0747 24.2287 13.0658 24.2356 13.0565C24.4523 12.7277 24.6848 12.4076 24.9201 12.0913C25.4048 11.4394 25.8953 10.6561 26.7427 10.4637C27.7059 10.245 28.2598 11.0634 28.8604 11.6634L30.3445 13.1458C30.9441 13.7457 31.7624 14.3019 31.5438 15.2639C31.3576 16.0828 30.62 16.5596 29.9895 17.0317C29.6497 17.2862 29.3055 17.5375 28.9513 17.7711C28.9419 17.7779 28.933 17.7854 28.9245 17.7933C28.9131 17.8007 28.9021 17.8087 28.8915 17.8174L20.3448 25.3902L19.1373 26.46L13.1484 31.7829C13.0219 31.8951 13.052 32.0839 13.1484 32.2002C14.3525 33.6328 15.5231 35.1627 16.2911 36.8814C16.5792 37.5259 16.8164 38.1636 16.5529 38.8636ZM36.4935 33.0364C34.7208 33.1405 32.8719 32.5969 31.2052 32.0517C27.8252 30.9461 24.6028 29.3434 21.5111 27.599C20.9492 27.2823 20.3895 26.9603 19.8383 26.6248L28.1006 19.3044L29.0998 18.419C30.4564 19.6016 31.7697 20.8371 33.0637 22.0869C34.4205 23.3974 35.7477 24.7374 37.0451 26.1069C37.6544 26.7508 38.2891 27.369 38.9057 28.0058C39.4456 28.5636 40.0961 29.1749 40.3608 29.9237C40.9387 31.9979 38.051 32.9452 36.4935 33.0364Z" stroke="#F5B923" stroke-width="0.972326"/>
<path d="M23.8174 15.6261L27.1893 18.1762L27.4334 18.1701C27.3835 16.173 25.8268 14.6173 23.8293 14.567C23.6682 14.5631 23.5287 14.6255 23.4333 14.7347C23.3429 14.8384 23.3046 14.9692 23.3046 15.0899C23.3047 15.2109 23.3432 15.3404 23.4304 15.4444C23.5216 15.5534 23.6565 15.622 23.8174 15.6261Z" fill="#F5B923" stroke="#F5B923" stroke-width="0.486163"/>
</g>
<defs>
<clipPath id="clip0_7010_1628">
<rect width="41.81" height="41.81" fill="white" transform="scale(1.00454)"/>
</clipPath>
</defs>
</svg>
