<svg width="42" height="42" viewBox="0 0 42 42" fill="none" xmlns="http://www.w3.org/2000/svg">
<g clip-path="url(#clip0_7010_1601)">
<path d="M20.9744 41.9999C15.7686 41.9935 10.7508 40.0539 6.89433 36.5572C3.03781 33.0605 0.617494 28.256 0.1029 23.0758C-0.411694 17.8956 1.01613 12.7089 4.10936 8.52186C7.20259 4.3348 11.7407 1.44588 16.8435 0.415517C21.9463 -0.614855 27.2498 0.286766 31.7254 2.94549C36.2009 5.60421 39.5294 9.83051 41.0652 14.8045C42.601 19.7786 42.2347 25.1457 40.0371 29.8649C37.8396 34.584 33.9676 38.3188 29.1722 40.3446C26.5788 41.4425 23.7905 42.0055 20.9744 41.9999ZM20.9744 2.10704C17.2486 2.10704 13.6063 3.21187 10.5085 5.28183C7.41056 7.3518 4.99603 10.2939 3.57022 13.7361C2.14441 17.1783 1.77134 20.966 2.49821 24.6202C3.22508 28.2745 5.01925 31.6312 7.65381 34.2657C10.2884 36.9002 13.645 38.6944 17.2992 39.4213C20.9534 40.1482 24.7412 39.7751 28.1834 38.3493C31.6256 36.9234 34.5677 34.5089 36.6377 31.4111C38.7076 28.3131 39.8124 24.671 39.8124 20.9451C39.8078 15.9504 37.8216 11.1616 34.2898 7.62973C30.758 4.09791 25.9691 2.1117 20.9744 2.10704Z" fill="#F5B923"/>
<path d="M20.9833 34.9999C17.5129 34.9956 14.1677 33.7026 11.5966 31.3713C9.02561 29.0402 7.41208 25.8373 7.06901 22.3838C6.72595 18.9304 7.67783 15.4725 9.73998 12.6811C11.8021 9.88979 14.8275 7.96385 18.2294 7.27693C21.6312 6.59002 25.1669 7.19109 28.1506 8.96359C31.1344 10.7361 33.3534 13.5536 34.3772 16.8696C35.4011 20.1856 35.1568 23.7638 33.6918 26.9098C32.2268 30.0559 29.6455 32.5457 26.4486 33.8962C24.7197 34.6282 22.8607 35.0036 20.9833 34.9999ZM20.9833 8.40462C18.4995 8.40462 16.0713 9.14117 14.0061 10.5211C11.9407 11.9011 10.3311 13.8625 9.38055 16.1573C8.43001 18.4522 8.18131 20.9773 8.66588 23.4134C9.15047 25.8496 10.3466 28.0873 12.1029 29.8437C13.8593 31.6001 16.0971 32.7962 18.5332 33.2808C20.9693 33.7653 23.4946 33.5166 25.7893 32.5661C28.0841 31.6155 30.0455 30.0059 31.4256 27.9407C32.8055 25.8753 33.542 23.4472 33.542 20.9634C33.539 17.6335 32.2148 14.4409 29.8603 12.0864C27.5057 9.73186 24.3131 8.40772 20.9833 8.40462Z" fill="#F5B923" stroke="#F5B923" stroke-width="1.16139"/>
<path d="M26.5439 20.0292C27.2367 20.491 27.2367 21.5089 26.5439 21.9707L19.3139 26.7907C18.5386 27.3076 17.5 26.7518 17.5 25.82V16.1798C17.5 15.248 18.5386 14.6923 19.3139 15.2091L26.5439 20.0292Z" fill="#F5B923"/>
</g>
<defs>
<clipPath id="clip0_7010_1601">
<rect width="41.81" height="41.81" fill="white" transform="scale(1.00454)"/>
</clipPath>
</defs>
</svg>
